<svg style = "fill:red" width="640" height="480" xmlns="http://www.w3.org/2000/svg" xmlns:svg="http://www.w3.org/2000/svg">
 <!-- Created with SVG-edit - http://svg-edit.googlecode.com/ -->
 <defs>
  <radialGradient id="svg_2" spreadMethod="pad" cx="0.5" cy="0.5" r="0.5">
   <stop stop-color="#b2b2b2" offset="0"/>
   <stop stop-color="#4d4d4d" offset="1"/>
   <stop stop-color="#4d4d4d" offset="1"/>
  </radialGradient>
  <pattern height="100" width="100" y="0" x="0" patternUnits="userSpaceOnUse" id="gridpattern">
   <image height="100" width="100" y="0" x="0" id="svg_5"/>
  </pattern>
  <pattern height="100" width="100" y="0" x="0" patternUnits="userSpaceOnUse" id="gridpattern">
   <image height="100" width="100" y="0" x="0" id="svg_7"/>
  </pattern>
  <pattern height="100" width="100" y="0" x="0" patternUnits="userSpaceOnUse" id="gridpattern">
   <image height="100" width="100" y="0" x="0" id="svg_9"/>
  </pattern>
  <pattern height="100" width="100" y="0" x="0" patternUnits="userSpaceOnUse" id="gridpattern">
   <image height="100" width="100" y="0" x="0" id="svg_14"/>
  </pattern>
  <pattern height="100" width="100" y="0" x="0" patternUnits="userSpaceOnUse" id="gridpattern">
   <image height="100" width="100" y="0" x="0" id="svg_20"/>
  </pattern>
  <pattern id="gridpattern" patternUnits="userSpaceOnUse" x="0" y="0" width="100" height="100">
   <image id="svg_22" x="0" y="0" width="100" height="100"/>
  </pattern>
  <pattern id="gridpattern" patternUnits="userSpaceOnUse" x="0" y="0" width="100" height="100">
   <image id="svg_27" x="0" y="0" width="100" height="100"/>
  </pattern>
  <pattern id="gridpattern" patternUnits="userSpaceOnUse" x="0" y="0" width="100" height="100">
   <image id="svg_32" x="0" y="0" width="100" height="100"/>
  </pattern>
  <pattern height="100" width="100" y="0" x="0" patternUnits="userSpaceOnUse" id="gridpattern">
   <image height="100" width="100" y="0" x="0" id="svg_34"/>
  </pattern>
  <pattern id="gridpattern" patternUnits="userSpaceOnUse" x="0" y="0" width="100" height="100">
   <image id="svg_36" x="0" y="0" width="100" height="100"/>
  </pattern>
  <pattern height="100" width="100" y="0" x="0" patternUnits="userSpaceOnUse" id="gridpattern">
   <image height="100" width="100" y="0" x="0" id="svg_37"/>
  </pattern>
  <pattern id="gridpattern" patternUnits="userSpaceOnUse" x="0" y="0" width="100" height="100">
   <image id="svg_40" x="0" y="0" width="100" height="100"/>
  </pattern>
  <pattern height="100" width="100" y="0" x="0" patternUnits="userSpaceOnUse" id="gridpattern">
   <image height="100" width="100" y="0" x="0" id="svg_42"/>
  </pattern>
  <pattern id="gridpattern" patternUnits="userSpaceOnUse" x="0" y="0" width="100" height="100">
   <image id="svg_44" x="0" y="0" width="100" height="100"/>
  </pattern>
  <pattern height="100" width="100" y="0" x="0" patternUnits="userSpaceOnUse" id="gridpattern">
   <image height="100" width="100" y="0" x="0" id="svg_45"/>
  </pattern>
  <pattern id="gridpattern" patternUnits="userSpaceOnUse" x="0" y="0" width="100" height="100">
   <image id="svg_48" x="0" y="0" width="100" height="100"/>
  </pattern>
  <pattern height="100" width="100" y="0" x="0" patternUnits="userSpaceOnUse" id="gridpattern">
   <image height="100" width="100" y="0" x="0" id="svg_50"/>
  </pattern>
  <pattern id="gridpattern" patternUnits="userSpaceOnUse" x="0" y="0" width="100" height="100">
   <image id="svg_52" x="0" y="0" width="100" height="100"/>
  </pattern>
  <pattern height="100" width="100" y="0" x="0" patternUnits="userSpaceOnUse" id="gridpattern">
   <image height="100" width="100" y="0" x="0" id="svg_54"/>
  </pattern>
  <pattern height="100" width="100" y="0" x="0" patternUnits="userSpaceOnUse" id="gridpattern">
   <image height="100" width="100" y="0" x="0" id="svg_57"/>
  </pattern>
 </defs>
 <g>
  <title>Layer 1</title>
  <text fill="#000000" stroke="#000000" stroke-width="0" stroke-dasharray="null" stroke-linejoin="round" stroke-linecap="null" x="224" y="61" id="svg_3" font-size="24" font-family="serif" text-anchor="middle" xml:space="preserve"/>
  <line fill="none" stroke="#000000" stroke-width="5" stroke-dasharray="null" stroke-linejoin="round" stroke-linecap="null" x1="484" y1="398" x2="485" y2="397" id="svg_15"/>
  <path transform="rotate(31 61.595703125000014,67.30470275878906) " stroke="#000000" id="svg_1" d="m61.18683,33.86163c-4.696,-0.01957 -9.77602,1.10906 -12.8349,4.73832c-2.38217,2.67547 -4.88868,5.51575 -5.43667,9.09839c-1.2341,6.32813 -1.17424,13.02302 0.86745,19.19704c1.18306,3.06596 3.91917,5.283 5.56879,8.11807c2.17961,2.96865 3.21002,6.57736 2.92118,10.17573c5.75791,0 11.51582,0 17.27373,0c0.01888,-5.38121 3.56047,-9.80628 6.71697,-13.98772c2.20382,-2.46023 3.62961,-5.44058 4.13233,-8.62735c0.97137,-5.71153 1.19187,-11.82349 -1.05665,-17.30032c-2.1349,-4.19032 -4.75063,-8.7887 -9.75033,-10.3768c-2.68091,-0.92391 -5.57364,-1.07953 -8.40189,-1.03535l0,0l-0.00001,-0.00001zm-8.80832,50.95889c5.79834,0 11.59668,0 17.39501,0c-1.04053,2.00938 -2.36023,4.21234 -1.62978,6.49369c-0.96712,1.98355 0.2709,3.95867 -1.32059,5.77375c-0.58603,2.48761 -3.92242,2.68138 -6.15723,2.74946c-2.41506,0.25298 -5.09951,-0.37971 -6.02067,-2.75371c-1.91608,-1.26956 0.39333,-2.816 -1.09133,-4.24319c1.71197,-1.75373 -1.2734,-2.6707 -0.21148,-4.57435c-0.2917,-1.30037 -1.36566,-1.90742 -0.96392,-3.44564l0,0l-0.00001,-0.00001zm-0.03779,0.0056c5.79833,0 11.59667,0 17.39501,0c-0.43691,1.95229 -2.32655,3.79803 -1.60812,5.76289c0.40885,1.63124 -1.29223,2.96653 -0.27162,4.68911c-0.77749,2.06669 -2.3337,4.40081 -4.9803,4.39417c-2.55662,0.0041 -6.02747,0.80497 -7.61165,-1.60007c-0.59914,-1.4493 -2.53387,-2.31828 -1.04838,-3.89103c-1.84192,-1.30355 1.23528,-3.23398 -1.1319,-4.09305c1.12553,-2.05742 -1.21415,-3.24128 -0.74304,-5.26202l0,0l0,0zm-0.07278,-0.04318c5.79834,0 11.59668,0 17.39502,0c-0.43691,1.95229 -2.32655,3.79803 -1.60812,5.76289c0.40884,1.63124 -1.29224,2.96653 -0.27162,4.6891c-1.00554,1.5048 -2.08234,3.96189 -4.18955,4.13849c-2.3127,0.02579 -4.6254,0.05156 -6.9381,0.07736c-1.58458,-1.60299 -3.84501,-3.47407 -2.60298,-5.61141c-1.75226,-1.15847 1.37465,-3.03325 -1.0416,-3.79442c1.12553,-2.05742 -1.21415,-3.24127 -0.74304,-5.26201l0,0l0,0l-0.00001,0zm4.75372,14.39915c2.45718,0 4.91437,0 7.37156,0c-0.79634,0.54335 -1.27829,1.80876 -2.43092,1.53377c-1.18504,-0.08742 -2.516,0.131 -3.6116,-0.14391c-0.44301,-0.46329 -0.88603,-0.92657 -1.32904,-1.38986l0,0zm2.67536,-14.50578c-0.84979,-11.80053 -1.71737,-16.80321 -4.91697,-23.94437c-3.19961,-7.14117 -0.68787,-4.75857 6.46127,-5.53099c7.14914,-0.77242 3.20856,2.22683 3.21147,7.74017c0.00291,5.51334 0.41662,8.27718 0.8813,13.06142c-0.45923,4.63278 0.42899,4.66436 -0.66481,8.37455" fill-opacity="0.1" stroke-linecap="null" stroke-linejoin="round" stroke-dasharray="null" stroke-width="0" fill="url(#svg_2)"/>
  <path id="svg_6" d="m110.81501,316.30501l0,-28.68751l0,0c0,-12.32286 9.98965,-22.31251 22.31251,-22.31251l0,0l0,0c5.91764,0 11.59292,2.35078 15.77733,6.53518c4.18441,4.18441 6.53518,9.85968 6.53518,15.77733l0,3.1875l6.375,0l-12.75,12.75001l-12.75001,-12.75001l6.375,0l0,-3.1875c0,-5.28122 -4.28128,-9.5625 -9.5625,-9.5625l0,0l0,0c-5.28123,0 -9.56251,4.28128 -9.56251,9.5625l0,28.68751l-12.75001,0l0.00001,0z" stroke-width="0" stroke="#000000" fill="#e5e5e5"/>
  <path id="svg_4" d="m266.50935,203.63881l0,-55.85414l0,0c0,-2.37288 1.89451,-4.29647 4.2315,-4.29647l50.77796,0c2.337,0 4.2315,1.92359 4.2315,4.29647c0,2.37287 -1.8945,4.29647 -4.2315,4.29647l-4.2315,0l0,55.85414c0,2.37288 -1.89451,4.29647 -4.2315,4.29647l-50.77796,0l0,0c-2.337,0 -4.2315,-1.92359 -4.2315,-4.29647c0,-2.37288 1.8945,-4.29647 4.2315,-4.29647l4.2315,0zm8.46299,-60.15061l0,0c2.33699,0 4.2315,1.92359 4.2315,4.29647c0,2.37287 -1.89451,4.29647 -4.2315,4.29647c-1.16849,0 -2.11575,-0.9618 -2.11575,-2.14824c0,-1.18644 0.94725,-2.14824 2.11575,-2.14824l4.2315,0m42.31497,4.29647l-46.54646,0m-8.46299,51.55766l0,0c1.16849,0 2.11575,0.9618 2.11575,2.14824c0,1.18644 -0.94725,2.14824 -2.11575,2.14824l4.2315,0m-4.2315,4.29647l0,0c2.33699,0 4.2315,-1.92359 4.2315,-4.29647l0,-4.29647" stroke-width="0" fill="#e5e5e5" transform="rotate(20.275470733642578 291.89831542968733,177.85997009277347) " stroke="#000000"/>
  <path id="svg_8" d="m345.27,108.81113l0,0c0,-4.59011 3.63382,-8.31112 8.11635,-8.31112l3.68925,0l0,0l17.70841,0l33.20326,0c2.1526,0 4.21702,0.87563 5.73914,2.43427c1.52211,1.55864 2.37722,3.67261 2.37722,5.87685l0,20.77781l0,0l0,12.46668l0,0c0,4.59011 -3.63381,8.31112 -8.11635,8.31112l-33.20326,0l-23.13385,21.13326l5.42544,-21.13326l-3.68925,0c-4.48254,0 -8.11635,-3.72101 -8.11635,-8.31112l0,0l0,-12.46668l0,0l0,-20.77781l-0.00001,0z" stroke-width="0" stroke="#000000" fill="#e5e5e5"/>
  <path id="svg_11" d="m124.26946,117.29911c-0.15387,0.00487 -0.30258,0.01784 -0.45709,0.03322c-2.47217,0.24625 -4.65414,1.81516 -5.7626,4.15295l-0.58769,1.76916c0.12679,-0.6131 0.32147,-1.2077 0.58769,-1.76916c-1.9768,-2.04812 91.24857,-30.99345 -7.49302,-2.54991c-98.74159,28.44354 -5.12254,2.22236 -6.42375,4.80081c-3.67333,-2.2624 -8.25222,-2.12537 -11.79456,0.35716c-3.54235,2.48253 -5.43041,6.87804 -4.85659,11.31263l0.37547,1.80238c-0.16967,-0.59048 -0.29638,-1.19118 -0.37547,-1.80238l-0.05714,0.16612c-3.07922,0.33557 -5.60456,2.72471 -6.2605,5.9221c-0.65594,3.1974 0.708,6.47815 3.3792,8.13148l4.17095,1.01332c-1.45639,0.11988 -2.9104,-0.23311 -4.17095,-1.01332c-2.06039,2.30798 -2.53452,5.7249 -1.17537,8.54677c1.35914,2.82186 4.26177,4.4467 7.25631,4.07819l1.82019,-0.48174c-0.58565,0.24513 16.80611,-31.59533 -1.82019,0.48174c-18.6263,32.07707 4.51875,5.41237 7.82767,6.32078c3.30892,0.90842 6.82355,0.37154 9.75398,-1.48675c2.39065,3.77009 6.63371,5.75028 10.88855,5.08321c4.25483,-0.66708 7.76465,-3.8659 9.01121,-8.20623l0.4326,-2.42532c-0.06478,0.82396 -0.20534,1.63402 -0.4326,2.42532c2.92653,1.91918 6.60777,2.02734 9.63154,0.2824c3.02378,-1.74493 4.91053,-5.0723 4.93821,-8.69627l-1.08404,-5.41473l-4.27045,-3.66361c3.30213,2.0685 5.38395,5.22007 5.35449,9.07834c3.9264,0.04115 41.26159,32.6767 8.75818,-7.1846c-32.50341,-39.86129 0.93045,-8.2634 -1.48555,-11.57011c1.00212,-2.46199 0.94266,-5.26248 -0.16324,-7.67465c-1.10591,-2.41217 -3.14584,-4.20501 -5.59936,-4.90878c-0.54907,-3.19703 -2.81232,-5.7687 -5.80342,-6.6115c-2.99109,-0.84279 -6.17605,0.19645 -8.17865,2.6745l-1.21618,2.05156c0.31076,-0.74189 0.71663,-1.43341 1.21618,-2.05156c-1.41168,-1.94756 -3.62584,-3.04651 -5.93401,-2.97351l0,-0.00001z" stroke-width="0" stroke="#000000" fill="#e5e5e5"/>
  <path transform="rotate(24 461.8802490234376,252.46369934082023) " id="svg_10" d="m461.88025,232.72345c15.66722,-44.94695 77.05192,0 0,57.78894c-77.05192,-57.78894 -15.66722,-102.73589 0,-57.78894z" stroke-width="0" stroke="#000000" fill="#e5e5e5"/>
  <path transform="rotate(20 287.9494018554688,293.2955932617187) " id="svg_12" d="m308.385,267.79558c-2.55252,0.4674 -4.52327,3.5478 -4.34061,6.07093c0.30173,2.87236 3.75242,1.0714 4.77057,0.25932c-0.60866,2.40446 -5.46926,2.89866 -5.1963,-0.02592c-3.70221,2.73226 -6.47571,7.01522 -11.06141,8.39955c-4.13801,0.9605 -8.47524,0.64321 -12.64795,0.08163c-2.53677,-0.23769 -4.95826,-1.51946 -7.51543,-1.2511c-2.73907,0.75137 -4.93654,2.75441 -7.66905,3.54412c-2.88109,1.26177 -1.78066,4.74539 -2.03035,7.21334c0.07706,3.67399 -0.59821,7.56627 -3.15894,10.36874c-1.48879,2.20734 -1.62453,5.11202 -2.82048,7.41565c3.97465,-0.04137 1.57867,-5.35515 3.76553,-7.51495c3.05118,-1.41268 2.96267,-5.29317 3.38834,-8.15052c0.31037,-1.15481 0.15591,-5.24782 1.38459,-4.69577c1.51046,3.39425 2.37061,7.18778 2.02877,10.90563c-1.99923,1.87553 -5.1775,3.21136 -4.71782,6.66835c0.1516,3.13115 -1.7534,5.38559 -3.24108,7.84312c0.95565,1.44212 0.2105,4.32991 2.9534,3.48432c1.83517,0.35336 2.74261,-0.49733 0.9323,-1.76242c-2.73634,-2.62894 1.07449,-6.1028 2.5538,-8.40426c1.5288,-2.56959 4.63689,-2.69234 6.91006,-4.2138c3.13982,-1.87431 5.4356,-4.76885 7.51755,-7.69664c1.82328,1.93799 -2.8785,3.71269 -3.57167,5.69169c-1.5122,1.62164 -4.21739,4.57299 -0.62745,5.57664c2.77511,0.94947 5.38947,2.88555 5.30596,5.92168c0.04614,2.06009 5.10125,3.92621 4.06657,0.58027c-1.74933,-3.12352 -5.92965,-4.35018 -7.04226,-7.88965c-0.76818,-2.71658 2.4298,-4.0325 3.96178,-1.82921c2.71247,-0.29681 5.56124,-2.1007 8.53723,-2.37781c3.0679,-1.1419 3.78059,3.03999 6.23802,4.13574c2.04844,2.02526 3.92924,4.58958 3.67045,7.63227c0.24952,2.57537 1.99331,5.26599 5.00523,5.00096c3.51508,-0.58785 -1.06731,-4.33168 -2.67721,-5.19226c-2.33267,-2.78209 -1.94723,-6.73737 -3.39911,-9.94095c-1.04659,-0.94588 0.04746,-5.53518 0.08514,-2.25199c-0.1884,3.76242 5.17481,1.6032 4.80792,-1.27451c0.91258,-2.29241 -2.42393,-0.87754 -1.98268,-3.18916c-0.36215,-2.87675 -0.15557,-6.43395 -2.65156,-8.40529c-1.43817,-1.41419 -1.00076,-1.55211 0.56534,-0.43354c3.05355,1.58136 2.46034,5.18739 2.67451,8.02951c0.88417,3.72472 4.45812,-1.09705 4.35342,-3.11698c0.61239,-4.38611 2.70359,-8.88584 6.78326,-11.0224c-1.09639,-0.53707 -6.4751,1.40921 -6.02386,-1.03942c2.21765,1.88356 5.26974,-0.16754 7.89107,0.38763c3.47771,0.14276 4.3414,-4.76896 0.52975,-5.00915c-2.4654,-1.46054 -4.58825,-4.04206 -7.77454,-3.84122c-4.61924,1.54814 -1.76573,-2.74332 -0.5308,-4.68216l0,0l0,-0.00001zm4.521,1.98805c-0.34772,1.21268 -2.63936,3.68765 0.1192,2.6862c0.3959,-0.81811 0.23289,-1.87712 -0.1192,-2.6862zm-0.73221,5.51289c1.2365,2.05444 -2.47001,0.21549 0,0zm5.10422,2.12427c-0.42898,0.87565 1.15382,1.03936 -0.06811,1.03872c-0.64636,0.85809 -0.92738,-1.10881 0.06811,-1.03872z" stroke-width="0" stroke="#000000" fill="#e5e5e5"/>
  <path id="svg_13" d="m522.47916,55.72511c-0.25748,0.00139 -0.50629,0.01461 -0.73235,0.04206c-1.2057,0.1464 -2.41231,0.58465 -2.41231,0.58465c0,0 0.00153,2.05011 -0.17072,3.51417c-0.17224,1.46407 -0.86101,3.95161 -0.86101,3.95161l0.84616,1.44058l0.01484,-0.26709l2.84776,0.42481l0.25236,0.01261c0,0 0.34333,-0.29264 0.68782,-0.73186c0.34449,-0.43922 1.0342,-0.73186 1.0342,-0.73186c0,0 0.17071,-2.19602 0.17071,-3.8065c0,-1.61048 0.69029,-4.24603 0.69029,-4.24603c0,0 -1.25202,-0.19321 -2.36777,-0.18717l0,0l0.00002,0.00001l0,0.00001zm-0.46762,9.69079l-2.84776,-0.13249l-0.01484,-0.02524l-1.48202,25.90101c0.05195,0.00851 0.11876,0.01892 0.11876,0.01892c0.03968,0.49717 0.21773,0.87557 0.4973,1.17139l3.17682,1.23448c0.0955,0.0216 0.19102,0.04286 0.287,0.0652l0.34391,-28.22065l-0.07918,-0.01261l0,0l0.00001,-0.00001zm-0.26474,28.23327l0,0.04627l-0.287,-0.11146c-1.28867,-0.29141 -2.51537,-0.53457 -3.17682,-1.23448l-0.6705,-0.26078l0.05443,-0.92953c-0.58059,-0.09515 -4.12889,-0.6469 -5.39367,-0.10936c-1.37795,0.58562 -2.41173,1.46367 -2.75622,3.36696c-0.34449,1.90329 0.68934,5.41769 0.5171,7.7602c-0.17225,2.34252 -2.06819,4.53831 -2.9294,6.44161c-0.86122,1.90329 -1.72128,4.09971 -0.68782,7.32068c1.03346,3.22095 4.82362,5.41724 6.89054,6.14927c2.06692,0.73203 6.37096,1.17139 6.37096,1.17139c0,0 4.13617,0.58805 6.71982,0.44163c5.42553,-0.83093 7.70101,-3.56816 8.03854,-6.98839c0.33754,-3.42023 -1.26416,-7.52315 -3.59495,-11.08721c-2.54846,-3.89691 2.30476,-9.06155 -0.20536,-11.97049c-2.61181,-3.02677 -4.54191,1.96971 -6.37591,0.88328c-0.7444,-0.44097 -1.63515,-0.68516 -2.51375,-0.88958l0,0l0.00001,-0.00001z" stroke-width="5" fill="#e5e5e5" stroke="#e5e5e5" transform="rotate(16 520.2130126953127,89.72497558593756) "/>
  <path fill="#e5e5e5" stroke="#e5e5e5" stroke-width="5" d="m430.14399,381.60382c-0.13394,-5.32171 2.50154,-10.55016 6.93493,-13.52565c7.22832,-5.49382 16.76856,-7.99722 25.73641,-6.48467c4.44074,-0.68522 6.40611,3.92487 4.84389,7.47498c-2.41473,2.36149 -6.6149,0.11554 -9.74224,1.33693c-10.13897,1.30556 -20.14731,5.71371 -26.9998,13.4588c-0.0418,-0.82857 -1.10255,-1.38067 -0.77319,-2.2604l0,0l0,0.00001zm0.12247,4.72257c0.53989,-3.75413 4.28382,-5.70876 6.88707,-7.9902c8.76376,-6.20267 19.74962,-8.66237 30.37324,-8.2452c0.26325,4.27734 -1.74956,8.35991 -4.1713,11.74844c-3.32539,1.85396 -7.46079,-0.25707 -10.9859,1.4306c-6.18266,1.49661 -13.06462,3.38234 -17.02179,8.77254c-1.4379,4.32851 -4.4771,-0.07716 -4.71221,-2.62475c-0.33423,-1.01218 -0.28773,-2.05202 -0.3691,-3.09144l0,0l-0.00001,0.00001zm1.69748,-12.83697c0.5292,-4.71019 3.63359,-8.60485 6.48153,-12.1938c3.21036,-3.82497 7.5807,-6.62909 12.49193,-7.65634c3.89272,-1.01673 7.9047,-1.43971 11.89567,-1.86679c3.02665,2.32473 4.95199,6.36728 4.44486,10.19113c-2.35076,0.59543 -6.5072,-1.41764 -9.67703,-0.92673c-8.98992,0.08467 -18.1803,3.68773 -24.25568,10.40958c-0.50585,0.64866 -0.96065,1.3361 -1.38128,2.04294l0,0l0,0.00001zm-0.48187,18.5808c3.36171,2.69572 3.47192,7.36795 5.53785,10.88481c-2.47641,-3.18799 -4.65622,-6.9124 -5.53785,-10.88481zm2.66197,2.56822c1.05456,-2.90575 4.36053,-6.98956 7.1188,-6.68587c1.10264,2.84014 1.58034,5.91755 3.37252,8.47793c4.81198,8.8332 13.61792,16.47472 24.08679,16.71529c1.71201,0.34701 6.25055,-0.80587 6.0661,-0.32887c-4.37555,2.14898 -9.44143,2.62021 -14.26261,2.44732c-8.95377,-0.5946 -17.87227,-4.89505 -23.25501,-12.17098c-1.52344,-2.6132 -2.38943,-5.54041 -3.12659,-8.45441l0,-0.00041zm7.36981,-7.4088c2.416,-1.1236 6.94244,-4.54143 8.7579,-1.7867c4.43055,8.72633 11.92093,16.14627 21.14242,19.63549c4.78776,1.5973 10.17384,1.57212 14.84277,-0.4213c-1.94721,3.02335 -5.16945,4.96231 -8.20601,6.74322c-7.76077,3.31261 -17.14195,1.51642 -23.68092,-3.64808c-6.3289,-5.01017 -11.29699,-12.18089 -12.83928,-20.18016l-0.00912,-0.18527l-0.00776,-0.15721l0,0l0,0l0,0.00001zm3.23763,-31.42194c5.87352,-4.03995 13.15189,-5.93459 20.25121,-5.4313c-3.63405,2.31949 -8.19404,1.43831 -12.17894,2.69415c-2.78006,0.60529 -5.5395,1.41925 -8.07227,2.73715l0,0zm5.07153,28.46502c3.86698,-1.83043 8.2677,-1.80072 12.44683,-1.55026c2.51953,3.92413 4.31612,8.48536 8.22828,11.31436c4.55918,4.07102 11.19346,5.2202 16.93812,3.30724c1.97279,-1.3328 4.16303,-0.48113 3.08566,2.1626c-1.29691,4.38958 -5.90188,6.31739 -10.12185,6.53031c-8.63349,0.8624 -16.53167,-4.04255 -22.36381,-9.96671c-3.40235,-3.40627 -6.27596,-7.37827 -8.21322,-11.79755l0,0l-0.00001,0.00001zm13.11405,-32.63883c3.14673,-2.49654 7.43232,-0.23755 10.65209,0.95714c3.20243,2.73996 3.63157,7.29888 4.47788,11.19102c1.41492,9.1367 0.8426,18.95196 -3.43103,27.29207c-1.02126,2.92349 -3.95631,4.50717 -5.8375,1.34642c-2.18612,-2.41101 -3.85769,-5.21649 -5.43518,-8.04095c-0.93296,-2.70274 2.12093,-4.60786 2.76051,-7.07911c1.24615,-2.46382 1.56305,-5.23506 1.70293,-7.93161c0.58717,-4.03397 0.00949,-8.21879 -1.05139,-12.12477c-0.74398,-2.16132 -1.95216,-4.25468 -3.8383,-5.61022l0,0l-0.00001,0.00001zm9.04447,43.15144c6.19443,-6.99823 7.17648,-16.93564 6.71022,-25.88231c-0.28389,-5.27492 -1.08605,-10.72607 -3.8676,-15.31978c2.87439,0.08901 5.96583,2.78894 8.21797,4.77724c6.383,8.1158 8.26005,19.98849 3.40751,29.31356c-1.90884,3.77063 -4.49438,7.17401 -7.5297,10.10906c-2.54099,-0.20879 -5.11663,-1.17022 -6.9384,-2.99777l0,0zm7.06384,3.03821c6.67101,-6.42963 11.50211,-15.67051 10.06037,-25.14577c-0.57397,-4.43785 -2.19437,-8.7248 -4.62106,-12.47913c4.44446,2.76954 6.91571,7.67486 9.13855,12.23197c3.19542,7.96462 1.45825,17.67218 -4.25216,24.03786c-2.93258,1.66331 -7.07045,1.91791 -10.3257,1.35508l0,-0.00001zm10.9826,-1.48713c2.28846,-3.99757 4.88515,-8.05003 5.12365,-12.79281c0.35568,-1.58575 -0.196,3.11124 -0.38747,4.09949c-0.60863,3.49004 -1.40336,7.21487 -3.56637,10.06243c-0.49764,-0.27605 -0.27564,-1.6204 -1.16982,-1.36912l0,0l0.00001,0.00001z" id="svg_16" transform="rotate(1 462.6745605468731,382.7968749999991) "/>
  <path id="svg_17" d="m522.88725,360.18048c-2.65724,-2.23742 -7.63989,0.18726 -8.24074,-3.89683c-1.15655,-3.62921 2.37661,-6.46458 4.72769,-8.66213c4.11316,-2.04909 8.85589,-2.29687 13.30404,-3.23583c5.33033,-0.77353 10.8801,-1.43467 15.47509,-4.5051c5.2336,-3.27403 11.06254,-5.99877 17.3676,-5.9505c8.68732,-0.30106 17.67552,-0.00938 25.70748,3.69966c5.04879,2.27838 10.47321,3.43634 15.86143,4.55088c4.58457,0.60251 3.5184,5.5467 5.04326,8.59477c1.16402,3.50014 -1.35229,6.98409 -5.03553,7.09538c-3.89436,0.88513 -8.45211,0.97225 -11.17072,4.3712c-2.78486,3.08271 -7.78547,2.97629 -10.62139,0.03137c-1.17248,-0.72796 -1.95527,-2.49043 -3.51658,-2.18621c-14.55865,0.07888 -29.1248,-0.20786 -43.67709,0.25921c-3.80262,-0.30272 -5.38208,4.41596 -9.42692,4.08798c-2.07102,0.06424 -4.03224,-3.27997 -5.79763,-4.25386l0,0l0.00001,0.00001z" stroke-width="5" stroke="#e5e5e5" fill="#e5e5e5" transform="rotate(-26 563.4200439453122,349.1798400878905) "/>
  <path fill="#e5e5e5" stroke="#e5e5e5" stroke-width="5" d="m100.22548,438.47906c-2.02745,-3.91553 4.2756,-5.9234 2.64554,-9.56756c-2.59957,-2.33119 -6.49419,-1.78662 -9.73406,-1.60867c-3.49957,-0.43123 -4.52428,3.15402 -6.54177,4.64381c-3.97823,-1.24243 -2.55548,-6.40001 1.07252,-6.97192c4.74447,-2.05336 9.98241,-0.87298 14.91042,-1.78292c3.56635,-2.07686 -0.84087,-6.53693 -3.64143,-7.01089c-4.63492,-1.87214 -10.35926,-1.92195 -13.90128,-5.86576c-1.40845,-3.07228 -1.04312,-8.69433 2.7545,-9.77049c1.72112,-2.9124 1.36131,-6.66297 0.90891,-9.89665c0.38618,-3.43868 -7.24483,-1.42463 -4.04291,-4.94996c2.88748,-2.21322 6.61042,-3.56986 10.2579,-3.51569c2.97591,0.0985 3.17879,3.52428 -0.10208,2.68539c-3.33713,1.6768 -2.09472,6.47352 -1.96721,9.5405c1.61017,3.09098 5.98147,1.45621 8.81659,1.91909c4.03319,0.1084 5.89682,0.12063 9.72174,1.42051c3.86853,-0.28612 2.34486,-5.59314 0.04633,-5.96064c-3.53553,-0.77917 -7.03053,-2.78212 -9.00781,-5.86783c-1.10475,-3.59896 0.46081,-7.39166 1.29565,-10.90084c2.49101,-7.61958 9.2599,-14.80457 17.72526,-14.82325c5.1964,0.07822 10.54159,3.92942 11.42984,9.17765c0.67448,5.51829 -1.51177,11.13991 -0.08683,16.58021c3.45992,1.91069 -2.36087,4.8247 -2.48596,7.46187c-1.47552,3.83538 1.89201,8.28937 -0.99135,11.74608c-1.80406,2.54517 -6.01194,3.95109 -6.08586,7.33837c-1.03592,3.04989 -5.82484,2.82065 -8.21728,4.80714c-2.64393,0.77817 -4.09181,5.20267 -0.04245,4.32217c3.94774,-0.09737 7.87705,-1.57834 11.81516,-0.90018c2.81959,1.92636 -0.12228,5.7569 -2.96017,3.9459c-1.48247,0.02274 -6.95558,0.76059 -5.09134,2.35769c4.66325,1.08924 9.71972,2.49872 12.73955,6.5206c2.83009,3.77332 -3.45564,4.67438 -4.70677,1.35707c-5.23392,-4.2739 -13.10492,-6.57869 -19.25415,-2.84454c-3.71982,1.55556 -2.85819,5.57226 -3.25064,8.56207c-1.51374,1.6534 -3.59905,-0.68569 -4.02856,-2.14831l-0.00001,0.00001l0.00001,-0.00003zm27.20011,-41.77747c-1.25452,-2.34516 -7.51274,-4.6576 -8.36389,-1.28029c0.47786,3.44156 5.32331,4.25652 7.90932,2.85143c0.47082,-0.35825 0.66565,-1.01598 0.45457,-1.57114l0,0z" id="svg_18"/>
  <path id="svg_19" d="m267.01212,112.63381c2.56039,0.85714 7.19162,-3.14575 2.52584,-3.38011c-3.15801,-1.98773 7.00104,-0.56913 2.86113,-4.7671c-4.42907,-0.96434 -7.89142,-4.33556 -9.43356,-8.64813c-1.80157,-4.64557 -7.66594,-3.36928 -11.5082,-4.71157c-7.66748,-1.3689 -15.32628,-2.98693 -23.12462,-3.38636c-2.5935,2.92256 -3.81655,9.20105 -8.43169,8.95622c-4.61347,-2.32131 0.19484,-8.14884 -1.18742,-11.47799c-2.70988,-0.91308 -2.19293,-2.68473 0.44988,-2.90897c4.03211,-2.78284 0.6774,-8.16219 -0.19989,-11.82796c-2.13423,-3.4817 2.436,-6.55152 4.17745,-2.44322c2.21902,4.28474 3.5072,8.98926 5.26971,13.48129c0.54995,2.88161 4.62643,1.24789 6.76146,2.10753c9.003,0.96859 18.01456,1.94221 27.06603,2.31692c4.53423,-1.9563 9.34611,-3.59555 14.36079,-2.90038c3.50701,1.06278 5.48766,-0.24702 5.33186,-3.87323c1.99107,-5.22308 -4.87903,-2.89692 -7.97646,-3.66569c-12.35711,-0.60099 -24.75073,-0.78296 -37.10333,-0.04436c-2.74245,-0.68436 3.62217,-0.62222 4.58796,-0.77954c13.03404,-0.68856 26.09572,-0.34984 39.13314,-0.93541c3.75941,-1.38668 7.49075,1.08249 11.32368,0.66431c9.66766,0.39608 19.34399,0.53396 29.01911,0.56399c-2.73512,2.03303 -7.8372,0.02007 -11.45511,0.5237c-7.27021,-0.22322 -14.5865,-0.43258 -21.81395,0.55708c-2.81502,2.71973 -1.3372,8.52765 2.18525,9.88046c3.58971,1.92993 7.27322,3.62172 10.54122,5.9153c2.06542,3.93381 7.90319,7.23443 6.18134,12.18803c-1.97329,4.09913 -9.12866,1.52171 -10.94037,2.67449c1.34034,2.37524 5.96894,2.61546 6.80138,3.48385c-4.56388,1.31457 -0.21216,4.12165 2.38361,3.23063c3.2032,0.7584 -3.25698,1.29108 -4.32351,1.04171c-5.18926,0.04174 -10.37537,-0.18152 -15.56333,-0.25287c5.013,-0.22369 10.04029,-0.21918 15.0379,-0.71622c-1.16571,-4.79288 -7.32468,-2.44851 -10.87346,-3.28034c-1.72999,-0.88694 -7.43243,0.23819 -4.54164,1.98836c1.61299,-0.72671 5.5554,-0.03168 1.96469,0.78319c-6.49448,0.20969 -13.01338,0.30352 -19.4869,-0.35763l0,0l0.00001,0.00002zm15.80723,-1.99179c-1.97954,-2.86388 -8.82045,-2.31362 -10.06539,0.29491c2.42505,1.95123 7.42948,1.27219 10.00985,0.09037l0.05554,-0.38529l0,0l0,0l0,0.00001zm14.30906,-1.6679c-2.91774,-2.05873 -8.25764,-2.28594 -10.87897,-0.61233c3.29151,1.57408 7.32884,0.93347 10.87897,0.61233zm-14.41663,-0.94306c3.10027,-2.64571 -5.46987,-2.1533 -7.36446,-2.01847c-4.68561,2.13136 1.90086,2.72 3.86859,2.37065c1.17234,-0.00773 2.34953,-0.0957 3.49588,-0.35218l0,0l-0.00001,0z" stroke-width="5" stroke="#e5e5e5" fill="#e5e5e5"/>
  <path fill="#e5e5e5" stroke="#cccccc" stroke-width="5" d="m164.68165,263.02887c2.02791,-6.63989 4.80355,-12.26319 7.43643,-15.06576c2.8207,-3.0025 1.56925,-4.30489 -1.34053,-1.3951c-1.22418,1.22417 -1.57395,0.33529 -1.57395,-4c0,-10.34366 5.36195,-16.74401 18.26309,-21.79992c10.91628,-4.27807 18.96437,-9.08903 22.30127,-13.33122l2.71917,-3.45688l0,6.01462c0,7.43717 -2.30738,18.67293 -4.86144,23.67274c-2.7094,5.30392 -11.9962,15.09417 -16.55338,17.45077c-4.08283,2.11133 -12.80245,2.73289 -17.46268,1.2448c-2.32238,-0.74157 -3.05943,-0.17497 -4.26277,3.27692c-0.80019,2.29542 -1.45489,5.56101 -1.45489,7.25684c0,1.92524 -0.77216,3.08332 -2.05582,3.08332c-1.5246,0 -1.82292,-0.76256 -1.15451,-2.95115l0,0l0.00001,0.00002z" id="svg_21"/>
  <path id="svg_23" d="m430.90052,40.81933l-22.20738,14.08144l21.93285,4.83764l-20.27234,15.11764l-8.18476,-2.55284l5.80516,14.57174l23.07029,-6.35756l-9.74065,-2.65743l26.45013,-21.71382l-24.17841,-3.93548l23.34816,-14.67308l-13.31824,-2.20309l14.50555,-9.32551l-5.32873,-0.13402l-22.50975,12.7936l10.6281,2.15078l0,0l0.00002,-0.00001z" stroke-width="5" stroke="#e5e5e5" fill="#e5e5e5"/>
  <path fill="#e5e5e5" stroke="#e5e5e5" stroke-width="5" d="m175.05376,31.18137c-6.04259,0 -11.2292,3.13362 -13.76795,7.65746c-1.01397,-0.56608 -2.13237,-0.90884 -3.32597,-0.90884c-3.60948,0 -6.61308,2.90367 -7.54143,6.8453c-1.58458,-0.62632 -3.427,-1.00552 -5.39503,-1.00552c-5.90409,0 -10.69337,3.23034 -10.69337,7.21271c0,3.59477 3.92784,6.54999 9.03039,7.09668c-0.22869,0.38801 -0.40608,0.77225 -0.40608,1.17956c0,3.81291 10.44625,6.92265 23.32044,6.92265c12.87419,0 23.32045,-3.10974 23.32044,-6.92265c0,-0.25655 -0.15923,-0.48549 -0.25138,-0.73481c0.56389,0.14023 1.12222,0.29006 1.74033,0.29006c3.44404,0.00001 6.24585,-2.34013 6.24585,-5.22099c0,-2.88087 -2.80181,-5.22099 -6.24585,-5.22099c-0.42206,0 -0.78094,0.14578 -1.17956,0.21271c0.34855,-1.15191 0.58011,-2.32729 0.58011,-3.57735c0,-7.62581 -6.90281,-13.82596 -15.43093,-13.82596l0,0l-0.00001,-0.00002z" id="svg_24"/>
  <path id="svg_25" d="m183.50828,135.53217c-7.6879,-2.88879 -13.19833,-12.06788 -11.94603,-19.8993c0.78966,-4.93831 17.44955,-34.91726 18.90449,-34.01806c0.47487,0.29349 4.70064,7.28284 9.39059,15.5319c7.51281,13.21412 8.52718,15.67815 8.52718,20.71353c0,10.2065 -8.16843,18.56678 -17.97633,18.39854c-2.86208,-0.0491 -5.96704,-0.37607 -6.89989,-0.7266l0,0l-0.00001,-0.00001zm7.70241,-5.13349c0.25447,-1.32138 -0.33996,-1.96581 -1.81332,-1.96581c-3.35793,0 -8.01593,-4.25291 -9.0566,-8.26898c-1.11011,-4.28406 -4.0535,-4.79356 -4.48826,-0.77692c-0.83762,7.73863 13.94704,18.33912 15.35817,11.01171l0,0l0.00001,0z" stroke-width="5" stroke="#e5e5e5" fill="#e5e5e5"/>
  <path fill="#e5e5e5" stroke="#e5e5e5" stroke-width="5" d="m226.00235,387.51725c2.32907,-5.96138 8.67197,-9.47589 14.83227,-9.92638c0,-1.26905 0,-2.5381 0,-3.80716c-9.88789,-0.71007 -19.67133,-4.8698 -26.24294,-12.46742c-6.00344,-6.44593 -9.18513,-15.11596 -9.62248,-23.8571c-3.47319,-2.47414 3.24362,-4.2743 4.0619,-1.53747c-1.87125,2.27061 -0.05832,5.83208 0.20762,8.61308c2.96329,13.14271 14.55621,23.64652 27.8235,25.51014c3.39259,1.50349 4.29525,-0.51692 3.71537,-3.61263c0.72605,-2.44758 -1.92075,-1.70456 -3.50398,-2.16152c-10.46005,-1.83382 -19.54767,-9.97705 -22.22961,-20.32921c-0.76836,-2.96185 -1.01824,-6.22459 -1.95393,-8.65141c1.98831,-1.55501 6.76223,-0.41417 4.12262,2.36367c0.28283,11.7613 10.04532,22.13844 21.59375,23.61674c2.38774,1.16742 2.11391,-0.8298 2.02818,-2.42888c1.26524,-3.88762 -2.50806,-3.30325 -5.04385,-4.25941c-7.13141,-2.42445 -12.35843,-9.3835 -12.85268,-16.91133c-3.41134,-2.97293 4.06545,-4.52769 4.11825,-1.43402c-1.9595,2.28422 0.24992,5.99311 1.43048,8.42979c2.66745,4.34888 7.29193,7.28486 12.3478,7.86752c0,-1.94182 0,-3.88363 0,-5.82545c-4.70041,-0.72674 -8.45483,-4.83267 -8.98651,-9.5441c-3.20252,-2.6076 3.76617,-3.86502 4.26729,-1.36715c-1.7388,1.363 -0.43042,3.5499 0.59044,5.02714c0.72945,0.87355 4.33958,3.91406 4.12877,1.62345c0,-2.5897 0,-5.1794 0,-7.7691c-2.2018,-1.39816 0.83046,-2.3293 -0.49371,-3.97992c0.76162,-1.71288 1.10661,-6.14354 1.67694,-6.19627c1.91043,2.72176 1.19722,6.49973 2.99997,8.86679c-0.99479,1.07046 -1.16762,2.25806 -0.99787,3.84456c0,2.08005 0,4.1601 0,6.24014c2.84914,-0.83731 5.42811,-3.20709 5.60838,-6.31965c-3.25564,-3.82258 7.92281,-2.97613 3.28348,0.41289c-0.48322,4.60884 -4.41394,8.40764 -8.89186,9.18418c0,1.93416 0,3.86833 0,5.80248c7.66405,-0.76982 14.42281,-7.52678 14.55867,-15.35246c-3.19117,-3.52528 7.20558,-3.29159 3.64698,-0.13655c-0.8168,3.82194 -1.60823,7.88403 -4.20728,11.0058c-3.2786,4.43387 -8.53066,7.06635 -13.9365,7.68763c0.04387,2.36064 -1.20184,7.34676 2.87432,5.35766c10.14815,-1.7272 18.77731,-10.23071 20.32767,-20.50463c1.48165,-2.28381 -2.24794,-6.45438 2.13839,-5.87942c2.71054,-0.63242 3.09297,1.63763 1.51505,3.0274c-0.5285,9.2653 -5.65652,18.18645 -13.70636,22.8712c-4.00871,2.35697 -8.56078,3.84244 -13.21094,4.09286c0.04604,1.9442 -0.1229,3.91364 0.15906,5.83753c9.11684,-0.72771 18.09103,-4.67309 24.03743,-11.79039c5.29667,-5.94815 8.02418,-13.7943 8.47912,-21.68438c-2.69359,-2.59304 2.94138,-2.9981 4.28362,-1.81806c-1.51861,3.01035 -1.34659,6.98172 -2.35416,10.46042c-3.27554,13.70243 -15.07878,24.74212 -28.87402,27.23817c-1.89096,0.40497 -3.81469,0.6101 -5.73106,0.84985c-0.18338,2.34899 -0.13118,4.73795 2.99392,4.28901c5.31564,1.11676 10.41891,4.78948 12.1171,10.11755c-11.1233,0 -22.24661,0 -33.36991,0c0.08043,-0.22873 0.16085,-0.45747 0.2413,-0.68618l0,0.00002l0.00001,-0.00002zm-21.39677,-53.84576c-0.1417,-2.09462 1.11932,-6.56235 1.46135,-7.08101c0.58634,1.91733 3.24878,6.13959 1.22067,7.38368c-0.8496,-0.09902 -2.07752,0.40671 -2.68202,-0.30267zm8.91209,0.14235c-0.4426,-2.58592 1.40857,-5.01121 1.16531,-7.68034c0.83109,2.17617 4.22412,7.60984 0.50761,7.85271c-0.55946,-0.01995 -1.13245,0.00919 -1.67292,-0.17236l0,0l0,-0.00001zm9.19615,-0.04447c-0.39347,-2.53679 1.34325,-4.93742 1.19196,-7.55409c1.02937,2.19654 4.49042,8.44373 -0.2141,7.76458l-0.49359,-0.03259l-0.48428,-0.1779l0,0l0.00001,0zm8.93361,0.0682c-0.50391,-2.58624 1.39499,-5.02926 1.14525,-7.70407c0.84428,2.19023 4.20613,7.57993 0.51364,7.90716c-0.55586,-0.02116 -1.12883,0.00555 -1.65889,-0.20309zm17.86524,-0.09881c-0.40125,-2.6013 1.37237,-5.06191 1.12282,-7.75801c0.69834,1.31253 1.6319,3.5453 2.04416,5.29424c1.23222,2.84777 -1.01995,3.23155 -3.16699,2.46377l0,0l0.00001,0zm9.21848,0.11485c-0.74706,-2.51839 1.36918,-5.04866 1.05246,-7.72011c0.88345,2.14877 3.20284,5.9782 1.68699,7.83107c-0.91279,0.00505 -1.84198,0.10773 -2.73945,-0.11095l0,-0.00001zm9.00127,-0.05325c-0.57642,-2.09939 1.12248,-6.40948 1.30975,-7.28937c0.90309,2.16596 4.26675,8.66955 -0.72115,7.46932l-0.5886,-0.17995l0,0zm9.06063,-0.03959c-0.49248,-2.30556 1.34339,-5.62375 1.24746,-7.4117c0.89584,2.07099 4.38311,8.33842 -0.24437,7.64171l-0.48816,-0.03861l-0.51492,-0.1914l0,0l-0.00001,0z" id="svg_26"/>
  <path id="svg_28" d="m241.84674,28.66324c0,5.78657 -5.00367,10.47751 -11.17601,10.47751c-6.17234,0 -11.17601,-4.69094 -11.17601,-10.47751c0,-5.78657 5.00367,-10.47751 11.17601,-10.47751c6.17234,0 11.17601,4.69094 11.17601,10.47751zm-0.90676,14.96946c-0.5222,0.65278 -6.34814,-5.87001 -7.11497,-5.5491c-0.76684,0.3209 -1.9258,10.74239 -2.73679,10.86045c-0.811,0.11806 -2.20522,-10.56577 -2.99561,-10.82091c-0.7904,-0.25514 -5.36747,6.17605 -6.05353,5.69305c-0.68606,-0.48299 1.62909,-8.33353 1.24756,-9.15496c-0.38153,-0.82143 -9.10704,-1.20712 -9.28676,-2.12348c-0.17971,-0.91637 7.90818,-3.32068 7.97504,-4.2283c0.06686,-0.90762 -5.43006,-6.03576 -5.11529,-6.83138c0.31478,-0.79562 7.67553,2.61117 8.17277,1.91321c0.49724,-0.69796 -0.96944,-9.4784 -0.21484,-9.7414c0.7546,-0.26299 5.28851,5.90265 6.09409,5.87317c0.80557,-0.02949 3.23063,-7.75544 4.05364,-7.57491c0.82301,0.18053 0.41252,8.19608 1.0496,8.73126c0.63708,0.53518 6.93727,-2.00622 7.40462,-1.27884c0.46735,0.72738 -3.61251,7.80568 -3.36681,8.6448c0.24571,0.83913 7.72047,1.63985 7.61837,2.50742c-0.10212,0.86757 -9.34601,1.23754 -9.73121,2.07785c-0.3852,0.84031 3.52233,10.3493 3.00013,11.00207l0,0l-0.00001,0z" stroke-width="5" stroke="#e5e5e5" fill="#e5e5e5"/>
  <path fill="#e5e5e5" stroke="#e5e5e5" stroke-width="5" d="m527.19519,184.93146c-2.18577,-0.16742 -6.12004,2.34525 -5.24279,-1.94944c1.5208,-2.63567 5.63838,-1.38253 5.17031,1.68892l0.05345,0.19212l0.01903,0.0684l0,0zm5.28687,-5.69707c-2.0862,3.57339 -6.78622,3.82893 -10.31528,5.1598c-1.6345,0.93753 -8.26105,1.54683 -5.73785,-1.31535c3.60328,-2.38853 8.03517,-2.96508 12.09206,-4.26752c1.30622,-0.30699 2.82139,-0.4275 3.96107,0.42308l0,-0.00001zm-10.79012,3.77915c-1.59143,-5.46212 -3.18285,-10.92423 -4.77427,-16.38635c1.94685,-2.6483 6.23922,-1.49984 5.64457,2.03028c1.23725,4.2465 2.4745,8.49301 3.71174,12.73952m-1.71474,2.87405c6.95126,24.35934 15.03475,48.43235 25.13613,71.67893m-23.30072,-72.31266c7.02224,22.92393 14.20876,45.87191 23.90192,67.83571c0.13343,1.70174 4.55999,6.8039 0.54687,5.48737c-1.24795,-0.59802 -3.3793,-0.19139 -3.61048,-1.94589c-9.46937,-22.88569 -17.67955,-46.29105 -24.61709,-70.06651" id="svg_29" transform="rotate(-33 534.1920776367188,211.1749877929687) "/>
  <path id="svg_30" d="m84.8029,196.01989c-0.4607,0 -0.87059,0.18912 -1.21642,0.53217c-0.34554,0.34276 -0.63136,0.83392 -0.86919,1.44732c-0.47561,1.22663 -0.76817,2.94976 -0.9282,5.01337c-0.15972,2.05964 -0.18663,4.4579 -0.12028,7.02519c-5.69082,2.33462 -17.23288,7.15498 -18.16006,8.23126c-1.23444,1.43295 -0.83559,3.07519 -0.33815,4.16538l18.97479,-3.862c0.40108,5.03284 0.97137,10.01761 1.46833,13.92355c-1.85562,0.54308 -5.31946,1.61541 -6.03444,2.28038c-0.98494,0.91605 -0.98494,3.87441 -0.98494,3.87441l7.76603,-0.63163c0.18291,1.2752 0.29729,2.01927 0.29729,2.01927l0.01135,0.06714l0.06128,0l0.14297,0l0.06128,0l0.01135,-0.06714c0,0 0.11417,-0.74408 0.29729,-2.01927l7.7683,0.63163c0,0 0.00001,-2.95836 -0.98494,-3.87441c-0.71525,-0.66523 -4.18161,-1.73999 -6.03671,-2.28288c0.49593,-3.89396 1.06521,-8.85965 1.46606,-13.87628l18.75239,3.81722c0.49744,-1.09019 0.89857,-2.73243 -0.33588,-4.16538c-0.91571,-1.06296 -12.17887,-5.77611 -17.93993,-8.14175c0.06883,-2.60056 0.04353,-5.0315 -0.11801,-7.1147l0,-0.00497c-0.16011,-2.06133 -0.45299,-3.78279 -0.9282,-5.00839c-0.23777,-0.61323 -0.52126,-1.10443 -0.86692,-1.44732c-0.34584,-0.34305 -0.75572,-0.53217 -1.21642,-0.53217l-0.00001,0l-0.00001,0z" stroke-width="5" stroke="#cccccc" fill="#e5e5e5"/>
  <path fill="#e5e5e5" stroke="#e5e5e5" stroke-width="5" d="m372.32158,220.13123l-5.34925,-0.94738l1.97078,-1.02907c1.08392,-0.566 2.06671,-1.11392 2.18398,-1.21761c0.29128,-0.25755 -3.3362,-5.86304 -3.79114,-5.8584c-0.19999,0.00227 -1.59352,2.17282 -3.09674,4.82397c-1.5141,2.6703 -3.02096,4.70393 -3.37847,4.55945c-4.23136,-1.70982 -7.68382,-3.43979 -7.68382,-3.8502c0,-0.28034 1.32762,-2.78106 2.95029,-5.55717l2.95029,-5.04747l8.04406,0l8.04406,0l2.09972,3.32087l2.09974,3.32087l2.19049,-1.12379c1.51849,-0.77905 2.0967,-0.89091 1.88472,-0.36471c-1.86637,4.63354 -4.65128,10.03634 -5.14631,9.98393c-0.34273,-0.03626 -3.03029,-0.49225 -5.97238,-1.0133l0,0l-0.00002,0.00001zm-24.94815,20.67222c-2.0357,-3.50563 -3.86015,-6.78791 -4.05433,-7.29398c-0.19928,-0.51929 0.38133,-2.3749 1.33293,-4.26l1.68599,-3.33995l-1.7235,-1.01811c-2.29362,-1.35487 -1.44107,-1.77217 4.64327,-2.27269l4.80861,-0.39557l1.88616,4.98368c1.0374,2.74102 2.01891,5.33767 2.18114,5.77036c0.16919,0.45125 -0.64054,0.15101 -1.89898,-0.70412l-2.19394,-1.49084l-1.53154,2.95644c-0.84233,1.62607 -1.54348,3.13766 -1.55809,3.35909c-0.01464,0.22143 2.57063,0.47482 5.74499,0.56308l5.77156,0.16046l0.37665,4.22182c0.20717,2.32201 0.33385,4.25285 0.28154,4.29076c-0.05231,0.03787 -2.78522,0.24318 -6.07313,0.4562l-5.97804,0.38728l-3.70129,-6.37392l0,0l0,0.00001zm22.78251,6.19407c-3.49474,-5.27471 -3.55548,-4.88236 1.6388,-10.58392l3.33438,-3.66001l-0.35414,2.67462l-0.35416,2.67463l3.73655,0c2.0551,0 3.73657,-0.16435 3.73657,-0.36519c0,-0.20088 -1.14025,-2.45697 -2.53387,-5.01361c-1.39362,-2.55664 -2.52858,-4.86281 -2.52213,-5.12483c0.01447,-0.58751 7.31966,-5.43892 7.66695,-5.09163c0.13761,0.13761 1.4933,2.58847 3.01266,5.44641l2.7625,5.19618l-3.71702,5.9956c-2.04439,3.29754 -4.0086,6.31721 -4.36489,6.71034c-0.35633,0.39313 -2.3487,0.87363 -4.42751,1.06773c-3.96794,0.37055 -3.85993,0.2813 -4.44172,3.66964c-0.10181,0.59298 -1.28904,-0.75251 -3.17295,-3.59595l0,0l-0.00002,-0.00001z" id="svg_31"/>
  <path id="svg_33" d="m271.04731,420.7709c-3.21123,-1.72166 0.08148,-5.12142 2.75908,-4.02194c1.99255,-0.00455 3.98512,-0.00155 5.97768,-0.00242c0,-3.9189 0,-7.83781 0,-11.75672c-4.99136,-6.02111 -9.98272,-12.04222 -14.97408,-18.06333c11.29735,-0.04194 22.59481,-0.04189 33.89215,0c-4.90163,6.05086 -9.80325,12.10172 -14.70488,18.15259c0,3.88916 0,7.77831 0,11.66747c2.94205,0.02623 5.88913,-0.07132 8.82686,0.0993c2.31301,0.62135 1.38711,4.42019 -0.8608,4.01973c-6.97178,-0.02426 -13.9458,0.04418 -20.91602,-0.09466l0,0l0.00001,-0.00002zm14.49676,-21.28513c2.24689,-0.85623 1.93101,-4.56117 -0.47924,-4.93893c-3.63582,-1.00154 -4.42093,5.30586 -0.59943,5.15784c0.36901,0.00242 0.74396,-0.04983 1.07867,-0.21891l0,0z" stroke-width="5" stroke="#cccccc" fill="#cccccc" transform="rotate(28 281.7560729980468,403.89508056640625) "/>
  <path fill="#FF0000" stroke="#e5e5e5" stroke-width="5" d="m535.65978,435.47644c0,-5.88253 0,-11.76506 0,-17.64759c-1.43405,0.40109 -2.82167,1.26064 -4.32499,1.21036c1.65634,-1.53403 4.68394,-2.01988 6.93401,-3.0258c9.82834,-3.46234 19.65963,-6.95646 29.67526,-9.84243c2.89893,-0.14243 5.64539,1.5354 8.44128,2.23695c6.32647,2.26966 12.77755,4.28765 18.90198,7.06249c-1.39844,1.87556 -6.1355,1.08686 -5.52222,4.62064c-0.42937,9.79193 -0.17988,19.59919 -0.24634,29.39833c-4.07606,1.20866 -8.13366,2.54181 -12.22121,3.67307c-13.87926,-0.01284 -27.75851,-0.02564 -41.63777,-0.03842c0,-5.88251 0,-11.76512 0,-17.64757l0,-0.00002l0,0l0,-0.00001zm5.61031,6.70747c0,-3.45968 0,-6.91936 0,-10.37907c3.5532,0 7.1064,0 10.65959,0c0,6.91939 0,13.83878 0,20.75815c8.22845,0 16.4569,0 24.68536,0c0,-11.59464 0,-23.18928 0,-34.78392c-13.46474,0 -26.92948,0 -40.39423,0c0,11.59465 0,23.18928 0,34.78392c1.68309,0 3.36619,0 5.04928,0c0,-3.45969 0,-6.91938 0,-10.37908l0,0zm21.31918,-5.89082c0,-1.49608 0,-2.99215 0,-4.48825c2.80516,0 5.61031,0 8.41547,0c0,2.99217 0,5.98434 0,8.9765c-2.80516,0 -5.61031,0 -8.41547,0c0,-1.49608 0,-2.99215 0,-4.48825zm7.2934,0.28051c0,-1.21556 0,-2.43112 0,-3.6467c-2.05712,0 -4.11423,0 -6.17134,0c0,2.43114 0,4.86228 0,7.2934c2.05711,0 4.11422,0 6.17134,0c0,-1.21556 0,-2.43112 0,-3.6467l0,0zm-18.51402,6.17134c0,-3.27267 0,-6.54535 0,-9.81804c-3.17918,0 -6.35835,0 -9.53753,0c0.06177,6.33098 -0.18608,12.67682 0.29889,18.99418c1.57169,0.98944 4.00239,0.5034 5.9572,0.64191c1.09381,0 2.18762,0 3.28143,0c0,-3.27268 0,-6.54537 0,-9.81805l0,0l0.00001,0zm32.39954,7.32961c1.54284,-0.51031 3.08567,-1.02062 4.62851,-1.53093c-0.06964,-9.84041 0.21168,-19.69252 -0.34506,-29.52162c-1.35906,-1.72631 -5.01586,2.17556 -7.29079,0.31005c-1.92894,-1.15841 -3.48439,-1.21614 -2.89388,1.46239c-0.12965,9.79658 -0.30144,19.60562 0.1073,29.39646c-0.49864,3.71341 4.20941,-0.33903 5.79392,-0.11635l0,0zm3.76911,-32.8102c1.24808,-0.58866 6.24766,-1.29179 2.85068,-2.36743c-6.65759,-2.82985 -13.42141,-5.47342 -20.36101,-7.52543c-2.84734,-0.40219 -5.51853,1.12411 -8.21608,1.80733c-1.55137,0.19956 -3.01207,1.42069 -0.59799,1.76799c7.17646,2.69901 14.33909,5.48441 21.69053,7.67299c1.54984,-0.27746 3.09307,-0.93987 4.63387,-1.35545l0,0zm-22.42339,-3.64399c-2.61815,-0.99463 -5.23629,-1.98927 -7.85443,-2.9839c-5.5051,1.92186 -11.06399,3.70209 -16.50366,5.80155c10.72879,0.35946 21.47562,0.12653 32.21252,0.16626c-2.61815,-0.99464 -5.23629,-1.98927 -7.85444,-2.98391l0.00001,0z" id="svg_35" transform="rotate(22 563.3110351562501,429.66244506835943) "/>
  <path id="svg_38" d="m63.04056,332.92334c0,-2.6131 0,-4.11213 0,-6.72523c0,-3.67707 5.01181,-9.03801 8.26172,-12.79617c0.88912,-0.87675 2.48779,-1.21672 3.33197,-0.38428c0.74983,0.7394 0.69323,2.55513 0.09742,3.45851c-1.09118,1.6396 -2.18234,3.27918 -3.27352,4.91877c-0.5469,0.93408 0.79512,1.6905 1.59779,0.69171c4.1908,-5.67425 5.33853,-6.82465 5.33853,-9.10743c0,-4.66259 0,-4.59855 0,-9.26114c0,-1.33492 0.97631,-2.6131 2.22368,-2.6131c1.18704,0 2.21935,1.22929 2.21935,2.388c0,7.53188 0,10.36849 0,17.90036c0,2.31984 -7.32643,9.33686 -7.32643,12.60597c0,0.76856 0,1.53711 0,2.30567c-4.15785,0 -8.31572,0 -12.47358,0c0.00089,-1.12722 0.0022,-2.25444 0.00309,-3.38165l-0.00002,0l0,0.00001zm-4.40612,0c0,-2.6131 0,-4.11213 0,-6.72523c0,-3.67708 -5.01179,-9.03801 -8.26171,-12.79617c-0.88912,-0.87675 -2.48778,-1.21672 -3.33197,-0.38428c-0.74985,0.7394 -0.69325,2.55513 -0.09743,3.45851c1.09118,1.6396 2.18234,3.27918 3.27352,4.91877c0.5469,0.93408 -0.79513,1.6905 -1.59779,0.69171c-4.19078,-5.67425 -5.33853,-6.82465 -5.33853,-9.10743c0,-4.66259 0,-4.59855 0,-9.26114c0,-1.33492 -0.9763,-2.6131 -2.22367,-2.6131c-1.18704,0 -2.21935,1.22929 -2.21935,2.388c0,7.53188 0,10.36848 0,17.90036c0,2.31983 7.32643,9.33686 7.32643,12.60597c0,0.76856 0,1.53711 0,2.30567c4.15786,0 8.31572,0 12.47358,0c-0.00089,-1.12722 -0.0022,-2.25444 -0.00308,-3.38165l0.00001,0l-0.00001,0.00001zm-6.59695,-33.02835l7.48,5.61l0,8.8l-7.48,-5.61l0,-8.8l0,0zm17.6,0l-7.48,5.61l0,8.8l7.48,-5.61l0,-8.8l0,0zm-17.6,-2.75l8.8,-6.6l8.8,6.6l-8.8,6.6l-8.8,-6.6l0,0z" stroke-width="5" stroke="#cccccc" fill="#e5e5e5"/>
  <path fill="#FF0000" stroke="#cccccc" stroke-width="5" d="m478.30289,467.08012c1.68784,-0.02121 -1.60743,-0.09841 -2.19194,-0.14097c-4.88412,-0.11844 -8.93751,-4.97438 -8.40998,-9.79339c0.10682,-4.82223 4.7514,-9.05832 9.5856,-8.57306c1.25834,-0.53454 3.04462,1.22953 3.8259,0.38694c2.00674,-3.53997 3.95106,-7.11692 6.03866,-10.6098c1.77821,-0.25381 3.89669,-0.44999 5.62651,0.03108c0.79972,1.25974 -0.65429,1.6027 -1.5616,1.40823c-1.01268,0 -2.02536,0 -3.03804,0c-0.73311,1.3375 -1.48539,2.66435 -2.23448,3.99293c4.25484,0 8.50968,0 12.76452,0c0.09475,-0.4526 1.1695,-1.42779 0.21668,-1.32179c-1.73107,-0.21818 -0.64822,-2.21885 0.6337,-1.64969c1.79942,0.06612 3.66246,-0.17738 5.40788,0.18336c0.93238,1.87124 -1.76354,1.4698 -2.91918,1.48963c-0.8554,-0.27919 -1.03267,0.57593 -1.37135,1.16105c-1.37317,1.40658 -0.51966,2.88904 0.40325,4.26023c0.33852,0.62378 0.57968,1.48952 1.40344,0.90667c1.67985,-0.36913 3.51119,-0.38252 5.18273,0.0491c3.49285,1.03771 6.29339,4.27615 6.52786,7.94461c0.21157,2.25331 -0.27014,4.57593 -1.6727,6.39371c-1.62677,2.33006 -4.26681,3.60592 -7.04418,3.86473m-2.17751,0.02274c-2.53204,-0.64977 -4.86652,-2.16143 -6.21995,-4.44362c-0.88571,-1.14073 -1.00086,-2.90691 -1.47163,-4.0512c-1.24164,-0.01625 -2.48327,-0.03249 -3.72491,-0.04874c-2.51479,-4.04555 -4.73136,-8.27653 -7.15718,-12.37847c-0.47286,1.40428 -3.16104,3.31483 -1.67675,4.60749c3.72508,3.12562 4.22115,9.23082 1.03503,12.91104c-1.46012,1.6368 -3.48563,2.76474 -5.56777,3.40234m0.15993,-2.22566c4.01799,-0.87498 6.58557,-5.50784 5.19579,-9.37162c-0.4295,-1.25841 -1.61127,-3.26859 -2.65504,-3.28919c-1.11263,1.92101 -2.11357,3.9108 -3.33298,5.76744c-2.67772,0.47101 -0.22445,-2.78939 0.34214,-3.89729c0.60746,-1.35174 2.8134,-3.5384 0.0345,-3.50603c-1.95088,-0.19414 -4.02414,-0.0064 -5.60232,1.28848c-3.38688,2.24127 -4.02791,7.36755 -1.46305,10.45775c1.73634,2.25126 4.73481,3.20838 7.48096,2.55045l0,0l0,0.00001zm28.11235,-0.00056c3.42949,-0.80577 5.8974,-4.33056 5.4535,-7.82885c-0.23478,-3.88775 -4.11197,-7.03195 -7.96657,-6.5094c-2.88843,-0.27337 -0.12309,2.37834 0.28977,3.66747c0.39278,1.36882 2.55652,3.05005 1.34851,4.38494c-2.70943,0.11351 -5.4853,-0.07971 -8.1873,0.19349c0.4853,3.58289 3.87603,6.54671 7.53487,6.27253c0.51347,-0.00419 1.02941,-0.04763 1.52722,-0.18019l0,0l0,0.00001zm-11.06862,-8.00712c0.32634,-2.80335 1.91538,-5.35337 4.23285,-6.94894c0.13692,-0.68766 -1.26633,-3.85493 -1.78014,-1.64679c-1.58596,2.88272 -3.18031,5.76158 -4.71768,8.67044c0.73649,0.01781 1.56209,0.14641 2.26498,-0.07471l-0.00001,0zm8.27853,-0.13904c-0.91423,-1.71868 -1.84876,-3.42705 -2.80433,-5.1231c-1.91691,1.01086 -3.17799,3.15011 -3.47609,5.28535c2.09302,-0.04462 4.22115,0.10936 6.28587,-0.1115l-0.00544,-0.05075l0,0l-0.00001,0zm-8.96626,-6.19927c0.90166,-1.66415 1.82044,-3.31954 2.69425,-4.99847c-3.79961,-0.08518 -7.60783,-0.10384 -11.40615,0.018c1.95098,3.35307 3.71359,6.83603 5.84681,10.07125c1.03148,-1.5866 1.90753,-3.41324 2.8651,-5.09078l0,0l-0.00001,0z" id="svg_39" transform="rotate(-19 490.94766235351494,452.5864257812497) "/>
  <path id="svg_41" d="m369.9734,463.90267c-2.06624,0.46416 -3.65936,-2.6418 -1.09736,-2.97967c2.25445,0.04263 -0.56067,-2.20763 1.47425,-2.96564c2.3407,-2.28438 4.66238,-4.66657 6.16247,-7.60687c-0.75582,-1.00218 -2.00322,-1.95969 -1.84023,-3.33102c1.47127,-0.50094 3.66304,-0.16142 3.75019,-2.48383c1.33796,-4.19172 1.69482,-8.62364 1.98811,-12.98974c-1.47654,-1.17051 -4.51711,-0.06165 -6.58061,-0.65785c-3.1304,-0.84511 1.16732,-2.46312 2.54586,-2.32981c1.23867,0.00186 3.07283,-0.76154 0.9996,-1.34498c1.74891,-0.08071 4.26435,-2.29912 1.3883,-3.09878c2.13225,-1.53086 0.48922,-4.86223 -0.40107,-6.77807c-1.34214,-2.31347 -3.54913,-3.98899 -6.04365,-4.88244c-0.40387,-2.35913 3.44249,-1.66186 5.00259,-1.78428c2.36232,0.09011 4.77117,-0.02823 6.82935,-1.31444c2.78085,-1.28665 5.14492,0.86071 7.68876,1.31463c2.57307,0.16571 5.24964,-0.46292 7.75503,0.26608c0.77629,0.55221 2.06685,1.42441 0.51257,1.84299c-2.96838,1.65232 -5.7405,4.09327 -6.48461,7.56068c-1.12259,1.92883 0.86745,3.60252 -0.95212,4.98578c-0.01893,1.62749 4.22248,1.85491 1.84813,2.65634c1.62722,0.88221 5.11705,0.32576 5.47316,2.28516c-1.4772,1.16207 -3.54871,0.70347 -5.31868,0.81195c-0.6002,0.20452 -2.10847,-0.49903 -1.87887,0.53527c-0.11761,4.63471 1.08613,9.19178 2.25024,13.63977c0.00149,2.17921 5.37501,0.94361 2.3882,3.41695c-2.20625,1.8994 1.02842,4.56022 2.14903,6.24973c1.52429,1.85335 4.23001,2.79146 4.00418,5.51194c1.55268,0.11178 3.39952,2.52927 1.25278,3.13162c-11.61834,0.24376 -23.24541,0.41156 -34.86561,0.33855l0.00001,0l0,-0.00002z" stroke-width="5" stroke="#e5e5e5" fill="#e5e5e5" transform="rotate(16 386.6829833984376,436.4498901367188) "/>
  <path fill="#FF0000" stroke="#e5e5e5" stroke-width="5" d="m42.89847,432.95358c-4.21409,-0.66988 -6.48944,-6.93182 -2.2787,-9.22567c4.3896,-2.26177 7.00027,5.79004 2.20545,6.57705c-2.6255,0.9836 3.40879,2.63076 4.53348,0.97685c3.51425,-1.70098 2.97138,-6.12812 2.12587,-9.24603c-0.29343,-2.38863 -0.66037,-4.94586 -3.6741,-3.58832c-7.27087,0.58499 -13.02722,-6.79127 -12.44902,-13.69173c0.1963,-6.50867 5.52763,-10.96657 9.47535,-15.48637c-1.29604,-5.91303 -1.68737,-12.7442 2.06974,-17.89696c3.46074,-4.18862 5.21732,3.47622 5.80272,6.0771c1.30032,6.07956 -1.29241,12.46822 -5.60666,16.7538c0.41195,2.03282 0.81727,4.067 1.23708,6.09821c4.55908,-0.88022 8.91093,2.97216 9.15959,7.4845c0.70445,4.07471 -1.90905,7.92277 -5.47882,9.67396c-0.0587,3.49901 1.8747,7.12852 1.18,10.74175c-0.66715,3.73576 -4.85673,5.56767 -8.30197,4.75186l0,0l-0.00001,0zm4.75952,-15.94148c1.29166,-2.42463 -1.05123,-6.7067 -1.17986,-9.81901c0.05059,-5.42721 -5.70621,1.0513 -3.99426,3.71648c0.50747,1.57705 4.91225,4.46911 0.86611,2.68546c-4.22427,-2.52825 -4.03079,-9.0333 -0.17102,-11.77993c3.23821,-0.71728 1.26043,-5.03847 0.65028,-6.45783c-3.97721,3.62465 -8.48521,8.18881 -7.7993,14.05533c0.51667,5.49867 6.51097,8.83434 11.62805,7.5995l0,0zm2.67604,-1.04956c3.79332,-2.43521 3.66883,-8.82624 -0.48134,-10.80843c-4.42825,-2.33989 -1.39518,3.79024 -1.31404,6.12358c0.61455,0.89323 0.26643,6.09801 1.79538,4.68485zm-4.67506,-29.29512c2.33337,-2.82274 5.00067,-6.8979 3.36195,-10.62993c-3.52896,-2.32948 -5.49004,3.9686 -5.57683,6.72639c-0.03211,1.78821 -0.29563,7.95188 2.21487,3.90354l0,0l0,0l0.00001,0z" id="svg_43"/>
  <path id="svg_47" d="m61.55055,203.81982c-1.15892,-1.58512 -2.96109,-1.76588 -3.39444,-4.02209c-0.33966,-1.2272 -3.5417,-2.87311 -1.64658,-0.67046c1.46337,1.3273 3.20194,6.223 -0.39825,4.6762c-2.73822,-1.00493 -2.85563,-4.10806 -3.58961,-6.43127c-2.38683,-1.65598 0.6171,-5.15743 -1.95284,-7.27918c-2.18115,-2.21485 -0.66211,-6.36295 -3.77879,-7.9334c-1.56436,-0.63493 -2.24149,3.74898 -2.50489,0.54186c-0.85705,-3.24368 -3.88391,1.57678 -5.90231,1.06574c-1.62873,-0.14159 2.72444,-1.2739 0.64709,-1.57861c-1.22133,0.66859 -2.35135,1.82463 -2.54457,-0.08895c-1.46918,-0.87257 -4.55009,-2.26602 -4.47006,-3.65217c1.27584,-0.40079 5.58291,0.75893 4.83651,-0.85247c-1.28078,-0.48606 -1.51344,-1.81475 0.05526,-0.92303c3.09147,0.09698 6.71554,-1.13706 9.28784,1.22317c1.34172,0.82556 2.66094,3.78645 3.37923,0.90902c2.31542,-2.79269 6.98757,-3.02924 8.41492,-6.64508c0.3454,-1.74939 -1.06081,-2.74747 -2.25543,-3.10182c-0.23241,-0.57491 -0.62806,-3.01577 -1.61593,-1.78404c0.04503,-1.07806 0.9717,-3.65608 -1.08092,-2.51479c-0.20819,-2.2962 1.75473,-4.58705 -0.84195,-6.25917c2.43295,0.45133 1.95319,-2.32236 1.42327,-2.76225c1.44223,-0.20479 3.13476,-1.50263 2.33957,-3.11043c1.56623,2.84341 1.62054,-3.44958 2.91,-0.73711c2.37327,0.38908 -0.73729,-2.12034 1.44554,-1.56023c1.24642,0.04265 0.96959,-1.3657 2.08931,-0.30277c1.48192,-0.80859 -1.13604,-3.25228 1.25668,-1.55438c0.80435,0.69878 3.36516,2.52899 2.90569,0.11387c2.27362,2.42533 4.06283,-2.25272 5.95212,-3.2215c0.74939,-0.89655 2.379,-1.84537 0.87607,-0.13396c-0.99775,2.18152 -4.38278,4.54146 -3.4721,6.70912c-0.82431,0.75045 1.66316,1.69364 -0.31697,1.40953c-1.17308,1.26629 1.57273,3.63544 1.79185,5.62839c-0.62896,1.36552 -3.02388,2.91575 -3.99269,2.86676c0.35409,-1.75811 -0.41353,-4.04961 -2.6556,-3.05585c1.25596,2.29809 2.95401,4.49349 4.01789,6.99263c1.03987,2.45677 2.72584,5.29384 4.94397,2.13197c1.41377,-2.01524 5.45257,-1.98607 4.34315,1.28669c-0.56714,3.21375 0.95127,7.45525 -1.96632,9.66899c-1.76005,3.39156 -3.7113,-1.26105 -2.32853,-3.02118c-0.35234,-0.50299 -0.62492,-0.85805 0.40613,-1.5456c-0.2129,-0.51574 2.96719,-2.45607 1.36444,-3.64669c-1.82287,2.06705 -4.49014,4.45966 -3.74888,7.5323c0.60162,2.05904 -4.36025,5.58907 -3.96347,2.17191c0.08888,-1.32803 1.98492,-3.90189 1.54848,-4.23348c-1.38429,2.59737 -3.3535,5.09271 -6.32918,5.86387c-2.47518,0.14668 -3.77178,2.13962 -2.59637,4.35081c0.22463,3.13336 -1.42934,5.9692 -1.81013,9.01997c0.70783,3.23574 5.01732,3.8896 5.60227,7.1903c1.00512,2.21675 -1.50909,1.88915 -2.68049,1.26887l0.00001,0l0.00001,-0.00001zm-6.12846,-9.65325c-0.36281,-1.46265 -1.10945,3.80217 -0.18908,1.00782l0.13778,-0.49369l0.0513,-0.51414l0,0l0,0.00001z" stroke-width="5" stroke="#e5e5e5" fill="#e5e5e5"/>
  <path fill="#e5e5e5" stroke="#e5e5e5" stroke-width="5" d="m374.73713,292.53758c-12.42656,0 -22.50001,10.07345 -22.50001,22.50001c0,12.42656 10.07345,22.50001 22.50001,22.50001c12.42656,0 22.50001,-10.07345 22.50001,-22.50001c0,-12.42656 -10.07345,-22.50001 -22.50001,-22.50001zm1.94286,34.69899l0,3.16895l-3.03117,0l0,-3.13334c-4.97403,-0.68116 -7.15375,-4.76813 -7.15375,-4.76813l3.09929,-2.58996c0,0 1.97537,3.44141 5.55147,3.44141c1.97537,0 3.47392,-1.05735 3.47392,-2.86243c0,-4.22475 -11.37695,-3.71233 -11.37695,-11.54724c0,-3.40581 2.69059,-5.85954 6.40447,-6.43853l0,-3.16895l3.03117,0l0,3.1674c2.58841,0.34058 5.65364,1.7029 5.65364,4.63345l0,2.24783l-4.01885,0l0,-1.08986c0,-1.12392 -1.43199,-1.87319 -3.03272,-1.87319c-2.04348,0 -3.54204,1.02174 -3.54204,2.45218c0,4.32538 11.37695,3.26958 11.37695,11.47912c0.00155,3.3733 -2.51875,6.30229 -6.43543,6.88128l0,0.00001z" id="svg_46"/>
  <path id="svg_49" d="m439.79497,163.36742l12.12245,-12.12245l12.87749,12.87739l12.87749,-12.87739l12.12257,12.12245l-12.8775,12.87749l12.8775,12.87749l-12.12257,12.12257l-12.87749,-12.8775l-12.87749,12.8775l-12.12245,-12.12257l12.87739,-12.87749l-12.87739,-12.87749z" stroke-width="5" stroke="#ffffff" fill="#e5e5e5"/>
  <path fill="#FF0000" stroke="#e5e5e5" stroke-width="5" d="m260.63325,241.61241c-1.07979,-0.52304 -2.38033,-0.07394 -2.90663,1.00802c-0.52413,1.08197 -0.07177,2.3825 1.00802,2.90663c3.38727,1.64851 5.72519,5.11624 5.72301,9.13529c-0.01087,5.60449 -4.54535,10.13896 -10.14875,10.14875c-5.60449,-0.01087 -10.13896,-4.54535 -10.14984,-10.14875c-0.00217,-4.02122 2.33683,-7.49222 5.72736,-9.13746c1.08197,-0.52413 1.53107,-1.82467 1.00802,-2.90663c-0.52413,-1.07979 -1.82249,-1.53215 -2.90446,-1.00802c-4.84113,2.34336 -8.17946,7.31062 -8.18163,13.05212c0.00217,8.00765 6.49072,14.49728 14.50054,14.49946c8.00874,-0.00217 14.49837,-6.49181 14.49946,-14.49946c-0.00217,-5.73932 -3.33616,-10.70333 -8.17511,-13.04995l0.00001,0zm-6.32435,10.69354c1.2005,0 2.17372,-0.97214 2.17372,-2.17481l0,-10.14984c0,-1.20158 -0.97323,-2.17372 -2.17372,-2.17372c-1.20267,0 -2.17481,0.97323 -2.17481,2.17372l0,10.14875c0,1.20267 0.97214,2.1759 2.17481,2.1759z" id="svg_51"/>
  <path id="svg_53" d="m347.86693,22.89232c-11.87426,0 -21.5,9.62574 -21.5,21.5c0,11.87426 9.62574,21.5 21.5,21.5c11.87426,0 21.5,-9.62574 21.5,-21.5c0,-11.87426 -9.62574,-21.5 -21.5,-21.5zm0,38.56065c-9.40976,0 -17.06213,-7.65385 -17.06213,-17.06065c0,-9.40828 7.65237,-17.06213 17.06213,-17.06213c9.40976,0 17.06065,7.65237 17.06065,17.06213c0,9.40976 -7.65385,17.06065 -17.06065,17.06065zm-0.00148,-33.14793c-0.81805,0 -1.47781,0.66272 -1.47781,1.47929l0,13.64053l-8.94379,3.91124c-0.74852,0.3284 -1.08876,1.20118 -0.76036,1.9497c0.2426,0.55473 0.78402,0.88609 1.35355,0.88609c0.19822,0 0.40089,-0.03994 0.5932,-0.12574l9.80178,-4.28698c0.0074,-0.00296 0.01331,-0.00592 0.01923,-0.00888l0.00592,-0.00296c0.02219,-0.00888 0.03402,-0.02959 0.05473,-0.03698c0.15385,-0.07692 0.29734,-0.16716 0.41272,-0.28846c0.0503,-0.0503 0.0784,-0.11538 0.11686,-0.17308c0.07101,-0.09467 0.14941,-0.18787 0.19231,-0.30178c0.0355,-0.08876 0.03846,-0.18491 0.05621,-0.27959c0.01923,-0.09615 0.05621,-0.18047 0.05621,-0.27663l0,-14.60799c0,-0.81509 -0.66272,-1.47781 -1.48077,-1.47781l0.00001,0.00003z" stroke-width="5" stroke="#e5e5e5" fill="#FF0000"/>
  <path fill="#cccccc" stroke="#cccccc" stroke-width="5" stroke-dasharray="null" stroke-linejoin="null" stroke-linecap="null" d="m295.50999,435.90501c0.25614,3.38903 1.22862,6.49387 2.65625,9.22014l2.65625,-4.14375l-0.76736,-0.28333l-1.0625,-0.37778l0.55486,-0.96806l1.94792,-3.44722l-5.98542,0zm8.15764,0l-1.92431,3.4l0.82639,0.29514l1.12153,0.40139l-0.6375,0.99167l-3.825,5.98542c2.75209,4.17717 6.77659,7.06088 11.39237,7.68542l0,12.21875l-7.55556,0l0,3.02222l18.8889,0l0,-3.02222l-7.55556,0l0,-12.21875c8.052,-1.07667 14.36946,-8.94591 15.11112,-18.75904l-25.84237,0l0,0l-0.00001,0z" id="svg_55"/>
  <path id="svg_56" d="m310.96423,423.92097c-2.70116,-1.01498 -4.63726,-4.24008 -4.19726,-6.99166c0.27745,-1.73508 6.13094,-12.26826 6.64213,-11.95232c0.16685,0.10312 1.65158,2.55884 3.2994,5.45717c2.63964,4.64281 2.99604,5.50855 2.99604,7.27774c0,3.58608 -2.87,6.52348 -6.31602,6.46437c-1.0056,-0.01725 -2.09653,-0.13213 -2.42429,-0.25529l0,0l0,-0.00001zm2.70626,-1.80366c0.08941,-0.46427 -0.11945,-0.69069 -0.63711,-0.69069c-1.17982,0 -2.81641,-1.49427 -3.18205,-2.90533c-0.39004,-1.50521 -1.42421,-1.68423 -1.57696,-0.27297c-0.2943,2.71899 4.90032,6.44349 5.39613,3.86899l0,0l-0.00001,0z" stroke-linecap="null" stroke-linejoin="null" stroke-dasharray="null" stroke-width="5" stroke="#e5e5e5" fill="#e5e5e5"/>
 </g>
</svg>